<!DOCTYPE svg PUBLIC "-//W3C//DTD SVG 1.1//EN" "http://www.w3.org/Graphics/SVG/1.1/DTD/svg11.dtd">
<!-- Uploaded to: SVG Repo, www.svgrepo.com, Transformed by: SVG Repo Mixer Tools -->
<svg fill="#000000" width="800px" height="800px" viewBox="0 0 24 24" id="water-tap" data-name="Flat Color" xmlns="http://www.w3.org/2000/svg" class="icon flat-color">
<g id="SVGRepo_bgCarrier" stroke-width="0"/>
<g id="SVGRepo_tracerCarrier" stroke-linecap="round" stroke-linejoin="round"/>
<g id="SVGRepo_iconCarrier">
<path id="secondary" d="M11,9.84a1,1,0,0,1-1-1V6H8A1,1,0,0,1,8,4h6a1,1,0,0,1,0,2H12V8.84A1,1,0,0,1,11,9.84Z" style="fill: #949494;"/>
<path id="primary" d="M17,10H14.62l-.45-.89A2,2,0,0,0,12.38,8H9.62A2,2,0,0,0,7.83,9.11L7.38,10H4V9A1,1,0,0,0,2,9v8a1,1,0,0,0,2,0V16H16v2a2,2,0,0,0,2,2h2a2,2,0,0,0,2-2V15A5,5,0,0,0,17,10Z" style="fill: #1f80ff;"/>
</g>
</svg>